<!-- drawn by Blaixx -->
<svg xmlns="http://www.w3.org/2000/svg" width="500" height="500">
<title>B Line</title>
<rect fill="#3FA21C" x="0" y="0" height="500" width="500" rx="50" ry="50" />
<path fill="white" d="M135.1,400V90h130.1c26.5,0,47.7,3.1,63.8,9.4c16,6.3,28.5,15.9,37.6,29c9.1,13,13.6,26.7,13.6,40.9
	c0,13.3-4,25.7-12.1,37.4c-8,11.7-20.2,21.1-36.4,28.3c21,5.5,37.1,14.9,48.4,28.1c11.3,13.3,16.9,28.9,16.9,46.9
	c0,14.5-3.4,28-10.3,40.5s-15.3,22.1-25.4,28.9c-10.1,6.8-22.7,11.9-38,15.3c-15.2,3.5-33.9,5.2-55.9,5.2H135.1z M195.9,211h57.4
	c15.6,0,26.7-0.9,33.5-2.8c8.9-2.4,15.7-6.5,20.2-12.2s6.8-12.8,6.8-21.4c0-8.1-2.1-15.3-6.3-21.5c-4.2-6.2-10.3-10.4-18.1-12.7
	c-7.8-2.3-21.3-3.4-40.4-3.4h-53V211z M195.9,352h67c11.5,0,19.6-0.4,24.2-1.2c8.2-1.4,15.1-3.6,20.6-6.8s10-7.8,13.6-13.9
	c3.5-6.1,5.3-13.1,5.3-21.1c0-9.3-2.6-17.4-7.7-24.3c-5.1-6.9-12.3-11.7-21.4-14.5c-9.1-2.8-22.2-4.2-39.4-4.2h-62.2V352z"/>
</svg>